<svg xmlns="http://www.w3.org/2000/svg" xml:space="preserve" id="BusinessLeadershipgrowth" x="0" y="0" enable-background="new 0 0 300 225" version="1.1" viewBox="0 0 300 225">
  <g fill="#000000" class="color000000 svgShape">
    <path fill="none" stroke="#000000" stroke-miterlimit="10" stroke-width=".316" d="M85.31,191.63c-28.98,4.94-69.9-76-42.9-131.74c18.47-38.13,57.2-36.43,79.82-31.56
		c8.94,1.93,17.09,6.6,23.1,13.5c8.35,9.6,27.05,23.18,63.01,15.84c67.3-13.74,64.78,54.34,64.78,54.34s0.01,33.59-11.59,59.54
		c-7.87,17.62-26.87,27.49-45.84,23.98C188.21,190.45,134.8,183.19,85.31,191.63z" class="colorStroke000000 svgStroke"></path>
    <g fill="#000000" class="color000000 svgShape">
      <g fill="#000000" class="color000000 svgShape">
        <path fill="#ffffff" stroke="#000000" stroke-linecap="round" stroke-linejoin="round" stroke-miterlimit="10" stroke-width=".316" d="M149.95,199.74H96.77v4.72c0,0,0,0.01,0,0.01l0,0.01c0,0.03,0.02,0.07,0.04,0.1
				c0.78,1.1,12.36,1.97,26.55,1.97s25.77-0.87,26.55-1.97c0.03-0.03,0.04-0.07,0.04-0.1l0,0c0-0.01,0-0.01,0-0.01V199.74z" class="colorffffff svgShape colorStroke000000 svgStroke"></path>
        <ellipse cx="123.36" cy="199.74" fill="#ffffff" stroke="#000000" stroke-linecap="round" stroke-linejoin="round" stroke-miterlimit="10" stroke-width=".316" rx="26.59" ry="1.81" class="colorffffff svgShape colorStroke000000 svgStroke"></ellipse>
      </g>
      <g fill="#000000" class="color000000 svgShape">
        <path fill="#ffffff" stroke="#000000" stroke-linecap="round" stroke-linejoin="round" stroke-miterlimit="10" stroke-width=".316" d="M149.95,194.9H96.77v4.72c0,0,0,0.01,0,0.01l0,0.01c0,0.03,0.02,0.07,0.04,0.1
				c0.78,1.1,12.36,1.97,26.55,1.97s25.77-0.87,26.55-1.97c0.03-0.03,0.04-0.07,0.04-0.1l0,0c0-0.01,0-0.01,0-0.01V194.9z" class="colorffffff svgShape colorStroke000000 svgStroke"></path>
        <ellipse cx="123.36" cy="194.9" fill="#ffffff" stroke="#000000" stroke-linecap="round" stroke-linejoin="round" stroke-miterlimit="10" stroke-width=".316" rx="26.59" ry="1.81" class="colorffffff svgShape colorStroke000000 svgStroke"></ellipse>
      </g>
      <g fill="#000000" class="color000000 svgShape">
        <path fill="#ffffff" stroke="#000000" stroke-linecap="round" stroke-linejoin="round" stroke-miterlimit="10" stroke-width=".316" d="M149.95,190.11H96.77v4.72c0,0,0,0.01,0,0.01c0,0,0,0,0,0.01c0,0.03,0.02,0.07,0.04,0.1
				c0.78,1.1,12.36,1.97,26.55,1.97s25.77-0.87,26.55-1.97c0.03-0.03,0.04-0.07,0.04-0.1c0,0,0,0,0-0.01c0,0,0-0.01,0-0.01V190.11z" class="colorffffff svgShape colorStroke000000 svgStroke"></path>
        <ellipse cx="123.36" cy="190.11" fill="#ffffff" stroke="#000000" stroke-linecap="round" stroke-linejoin="round" stroke-miterlimit="10" stroke-width=".316" rx="26.59" ry="1.81" class="colorffffff svgShape colorStroke000000 svgStroke"></ellipse>
      </g>
      <g fill="#000000" class="color000000 svgShape">
        <path fill="#ffffff" stroke="#000000" stroke-linecap="round" stroke-linejoin="round" stroke-miterlimit="10" stroke-width=".316" d="M149.95,185.27H96.77v4.72c0,0,0,0.01,0,0.01c0,0,0,0,0,0.01c0,0.03,0.02,0.07,0.04,0.1
				c0.78,1.1,12.36,1.97,26.55,1.97s25.77-0.87,26.55-1.97c0.03-0.03,0.04-0.07,0.04-0.1c0,0,0,0,0-0.01c0,0,0-0.01,0-0.01V185.27z" class="colorffffff svgShape colorStroke000000 svgStroke"></path>
        <ellipse cx="123.36" cy="185.27" fill="#ffffff" stroke="#000000" stroke-linecap="round" stroke-linejoin="round" stroke-miterlimit="10" stroke-width=".316" rx="26.59" ry="1.81" class="colorffffff svgShape colorStroke000000 svgStroke"></ellipse>
      </g>
      <g fill="#000000" class="color000000 svgShape">
        <path fill="#ffffff" stroke="#000000" stroke-linecap="round" stroke-linejoin="round" stroke-miterlimit="10" stroke-width=".316" d="M149.95,180.49H96.77v4.72c0,0,0,0.01,0,0.01c0,0,0,0,0,0c0,0.04,0.02,0.07,0.04,0.1
				c0.78,1.1,12.36,1.97,26.55,1.97s25.77-0.87,26.55-1.97c0.03-0.03,0.04-0.07,0.04-0.1c0,0,0,0,0-0.01c0,0,0-0.01,0-0.01V180.49z" class="colorffffff svgShape colorStroke000000 svgStroke"></path>
        <ellipse cx="123.36" cy="180.49" fill="#ffffff" stroke="#000000" stroke-linecap="round" stroke-linejoin="round" stroke-miterlimit="10" stroke-width=".316" rx="26.59" ry="1.81" class="colorffffff svgShape colorStroke000000 svgStroke"></ellipse>
      </g>
      <g fill="#000000" class="color000000 svgShape">
        <path fill="#ffffff" stroke="#000000" stroke-linecap="round" stroke-linejoin="round" stroke-miterlimit="10" stroke-width=".316" d="M149.95,175.64H96.77v4.72c0,0,0,0.01,0,0.01c0,0,0,0,0,0.01c0,0.03,0.02,0.07,0.04,0.1
				c0.78,1.1,12.36,1.97,26.55,1.97s25.77-0.87,26.55-1.97c0.03-0.03,0.04-0.07,0.04-0.1c0,0,0,0,0-0.01c0,0,0-0.01,0-0.01V175.64z" class="colorffffff svgShape colorStroke000000 svgStroke"></path>
        <ellipse cx="123.36" cy="175.64" fill="#ffffff" stroke="#000000" stroke-linecap="round" stroke-linejoin="round" stroke-miterlimit="10" stroke-width=".316" rx="26.59" ry="1.81" class="colorffffff svgShape colorStroke000000 svgStroke"></ellipse>
      </g>
    </g>
    <path fill="#ffffff" stroke="#000000" stroke-miterlimit="10" stroke-width=".316" d="M255.16,98.62H141.78c-3.43,0-6.21-2.78-6.21-6.21V33.63c0-3.43,2.78-6.21,6.21-6.21h113.38
		c3.43,0,6.21,2.78,6.21,6.21v58.77C261.38,95.84,258.59,98.62,255.16,98.62z" class="colorffffff svgShape colorStroke000000 svgStroke"></path>
    <g fill="#000000" class="color000000 svgShape">
      <g fill="#000000" class="color000000 svgShape">
        <rect width="25.89" height="10.49" x="142.82" y="73.59" fill="#16261f" transform="rotate(-90 155.763 78.832)" class="color261616 svgShape"></rect>
        <rect width="30.92" height="10.49" x="168.78" y="71.1" fill="#16261f" transform="rotate(-90 184.235 76.346)" class="color261616 svgShape"></rect>
        <rect width="16.43" height="10.49" x="204.49" y="78.32" fill="#16261f" transform="rotate(-90 212.708 83.562)" class="color261616 svgShape"></rect>
        <rect width="39.88" height="10.49" x="221.24" y="66.59" fill="#16261f" transform="rotate(-90 241.18 71.837)" class="color261616 svgShape"></rect>
      </g>
      <g fill="#000000" class="color000000 svgShape">
        <polyline fill="none" stroke="#000" stroke-miterlimit="10" stroke-width="2.211" points="155.76 51.94 184.24 35.86 212.71 54.61 241.18 34.23"></polyline>
        <polyline fill="none" stroke="#000" stroke-miterlimit="10" stroke-width="2.211" points="228.47 34.23 241.18 34.23 237.22 46.16"></polyline>
      </g>
    </g>
    <path fill="#ffffff" stroke="#000000" stroke-miterlimit="10" stroke-width=".316" d="M66.29,195.93l-17.17-2.63l4.69-30.6c0.73-4.74,5.16-7.99,9.9-7.27h0c4.74,0.73,7.99,5.16,7.27,9.9
		L66.29,195.93z" class="colorffffff svgShape colorStroke000000 svgStroke"></path>
    <path fill="#ffffff" stroke="#000000" stroke-miterlimit="10" stroke-width=".316" d="M62.58 83.58c-4.1 18.4-4.86 24.92-7.21 40.91-1.63 11.07-7.02 58.38-7.02 58.38 14 4.43 24.84 1.21 24.84 1.21 10.88-26.84 17.43-76.94 17.43-76.94l-.3-20.15L62.58 83.58zM124.7 164.23l-17.17 1.38L104.51 135c-.47-4.74 3-8.97 7.74-9.43h0c4.74-.47 8.97 3.31 9.43 8.05L124.7 164.23z" class="colorffffff svgShape colorStroke000000 svgStroke"></path>
    <g fill="#000000" class="color000000 svgShape">
      <path fill="#52cc99" d="M103.38,170.62l40.01,0.6l0,0c0.02-2.19-1.15-4.22-3.05-5.31c-4.99-2.87-14.31-8.18-14.57-8.3
			c-0.35-0.17-0.82,0.1-1.15,0.46c0,0-1.41,1.54-2.74,2.13c0,0,0,0,0,0c-0.36,0.15-0.78,0.3-1.26,0.44c-1.74,0.5-4.3,0.51-7.74,0.45
			c-3.87-0.07-6.49-0.98-6.84-1c-0.34-0.02-0.98,0.63-1.08,1.12c-0.02,0.11-0.11,0.63-0.24,1.38
			C104.26,165.22,103.38,170.62,103.38,170.62z" class="colorff7f6e svgShape"></path>
      <g fill="#000000" class="color000000 svgShape">
        <path d="M120.61,160.63l11.36,8.02c0.09,0.07,0.2,0.1,0.31,0.1c0.17,0,0.34-0.08,0.44-0.23c0.17-0.24,0.11-0.58-0.13-0.75
				l-10.73-7.57C121.51,160.35,121.09,160.5,120.61,160.63z" fill="#000000" class="color000000 svgShape"></path>
      </g>
      <polygon points="143.35 176.11 103.34 175.51 103.38 170.61 143.39 171.21" fill="#000000" class="color000000 svgShape"></polygon>
    </g>
    <g fill="#000000" class="color000000 svgShape">
      <path fill="#52cc99" d="M46.51,201.32l40.01,0.6v0c0.02-2.19-1.15-4.22-3.05-5.31c-4.99-2.87-14.31-8.18-14.57-8.3
			c-0.35-0.17-0.82,0.1-1.15,0.46c0,0-1.41,1.54-2.74,2.13c0,0,0,0-0.01,0c-0.36,0.15-0.77,0.3-1.25,0.44
			c-1.74,0.5-4.3,0.51-7.74,0.45c-3.87-0.07-6.49-0.98-6.84-1c-0.34-0.02-0.98,0.63-1.08,1.12c-0.02,0.11-0.11,0.63-0.24,1.38
			C47.4,195.93,46.51,201.32,46.51,201.32z" class="colorff7f6e svgShape"></path>
      <g fill="#000000" class="color000000 svgShape">
        <path d="M63.74,191.34l11.36,8.02c0.09,0.07,0.2,0.1,0.31,0.1c0.17,0,0.34-0.08,0.44-0.23c0.17-0.24,0.11-0.58-0.13-0.75
				L65,190.9C64.64,191.06,64.22,191.21,63.74,191.34z" fill="#000000" class="color000000 svgShape"></path>
      </g>
      <polygon points="86.49 206.82 46.48 206.22 46.51 201.32 86.52 201.92" fill="#000000" class="color000000 svgShape"></polygon>
    </g>
    <path fill="#ffffff" stroke="#000000" stroke-miterlimit="10" stroke-width=".316" d="M100.79,129.19c0.38,10.91,1.31,25.83,1.31,25.83c10.95,2.98,24.73-2.1,24.73-2.1
		c3.67-16.85,3.47-29.53,3.02-41.25c-0.28-7.3-5.79-12.21-13.57-13.07L60.41,88.2v20.09c0,7.71,5.79,14.19,13.44,15.06l23.59,2.79
		C99.68,126.33,100.73,127.41,100.79,129.19z" class="colorffffff svgShape colorStroke000000 svgStroke"></path>
    <path fill="#ffffff" stroke="#000000" stroke-linecap="round" stroke-linejoin="round" stroke-miterlimit="10" stroke-width=".316" d="m39.99 95.57-.7 1.53c-.25.97-1.18 1.6-2.17 1.49h0c-1.18-.13-2-1.25-1.75-2.42l.14-.57c0 0-1.1 1.35-2.72-.04 0 0-1.04-.62-.63-2.26 0 0-1.39.98-2.5-.2s-.66-2.31-.66-2.31-1.86.58-2.1-1.69c0 0-.21-1.14 1.49-3.18 0 0 2.78-4.99 3.5-6.86.71-1.87 4.48-5.32 4.48-5.32l0 0c.77-1.34 2.29-2.06 3.81-1.8l3.13.53c2 .34 3.35 2.24 3.02 4.24l-.47 2.78c0 0-2.11 8.05-1.71 11.41.22 1.86-.3 3.14-.81 3.9-.38.57-1.03.89-1.71.85L39.99 95.57zM133.43 35.16l2.21-2.13c.69-.87 1.91-1.1 2.87-.55v0c1.15.66 1.48 2.16.71 3.24l-.03 0c0 0 1.72-.88 2.75 1.24 0 0 .78 1.09-.36 2.58 0 0 1.85-.38 2.46 1.31.61 1.69-.35 2.64-.35 2.64s2.15.24 1.38 2.65c0 0-.29 1.25-2.92 2.57 0 0-5.04 3.84-6.6 5.42-1.56 1.59-6.91 3.43-6.91 3.43l0 0c-1.37 1.02-3.24 1.08-4.67.14l-2.95-1.93c-1.89-1.23-2.42-3.76-1.19-5.65l1.71-2.62c0 0 4.54-5.84 5.62-9.43.6-1.99 1.7-3.05 2.56-3.61.64-.41 1.44-.45 2.11-.11L133.43 35.16z" class="colorffffff svgShape colorStroke000000 svgStroke"></path>
    <line x1="139.19" x2="136.72" y1="35.72" y2="37.34" fill="none" stroke="#000000" stroke-linecap="round" stroke-linejoin="round" stroke-miterlimit="10" stroke-width=".316" class="colorStroke000000 svgStroke"></line>
    <path fill="none" stroke="#000000" stroke-linecap="round" stroke-linejoin="round" stroke-miterlimit="10" stroke-width=".316" d="M132.72,40.73c0,0,2.28,3.11,0.31,6.31" class="colorStroke000000 svgStroke"></path>
    <polygon fill="#ffffff" stroke="#000000" stroke-miterlimit="10" stroke-width=".316" points="78.93 48.9 79.12 39.47 87.62 40.46 87.62 42.71 87.73 48.42 84.3 50.18" class="colorffffff svgShape colorStroke000000 svgStroke"></polygon>
    <path fill="#ffffff" stroke="#000000" stroke-miterlimit="10" stroke-width=".316" d="M77.14,36.3c1.65,4.83,7.12,8.11,10.1,6.59c4.28-2.19,3.54-5.66,2.75-10.7c-1.08-6.96-5.56-7.86-8.74-6.77
		C78.09,26.5,75.49,31.48,77.14,36.3z" class="colorffffff svgShape colorStroke000000 svgStroke"></path>
    <polygon points="97.47 49.24 97.68 73.48 97.9 96.4 61.48 94.98 67.6 46.77 78.73 44.54 84.83 48.89 87.91 44.97" fill="#000000" class="color000000 svgShape"></polygon>
    <path fill="#ffffff" d="M86.59,49.64c-1.54-1.45-3.56-0.31-3.56-0.31s-0.46,2.93-0.22,3.37c0.23,0.44,2.03,2.24,2.03,2.24
		s2.17-1.79,2.27-2.38C87.25,51.67,86.59,49.64,86.59,49.64z" class="colorffffff svgShape"></path>
    <path fill="#52cc99" d="M91.95,99.76c0,0-0.42-28.41-1.62-38.86c-1.26-11-2.42-15.94-2.42-15.94s7.77,1.1,11.33,2.54l0.3,29.54v22.41
		C99.54,99.45,95.33,100.34,91.95,99.76z" class="colorff7f6e svgShape"></path>
    <path fill="#52cc99" d="M130.49,57.75l-7.7-13.49c-11.1,7.02-14.36,6.5-23.55,3.24L92.59,67.4l9.27,2.66
		c7.85,2.25,16.3,0.06,22.07-5.72L130.49,57.75z" class="colorff7f6e svgShape"></path>
    <g fill="#000000" class="color000000 svgShape">
      <path fill="#52cc99" d="M58.8,97.16c-0.14-0.05,1.9-19.4,3.33-34.17c0.57-5.9,1.11-11.41,1.49-15.29c0.08-0.81,0.15-1.55,0.22-2.2
			c9.17-1.87,14.9-0.96,14.9-0.96s0.01,0.26,0.02,0.74c0.14,5.03,0.82,42.37,0.94,54.96C79.69,100.24,67.88,100.64,58.8,97.16z" class="colorff7f6e svgShape"></path>
    </g>
    <path fill="#52cc99" d="M56.67,47.7c-20.05,7.17-25.43,28.53-25.43,28.53l15.75,7.35c0,0,1.51-6.65,7.05-11
		c5.54-4.35,9.66-2.15,9.66-2.15l0.14-24.93C63.84,45.5,62.83,45.49,56.67,47.7z" class="colorff7f6e svgShape"></path>
    <path fill="#ffffff" d="M85.84,53.82l-1.79,0.02l-0.36,12.12c0.93,3.03,3.54,6.21,3.54,6.21s1.34-2.34,1.6-3.43L85.84,53.82z" class="colorffffff svgShape"></path>
    <path d="M75.77,45.51l6.62,5.26l2.44-1.89l-5.57-4.32C79.27,44.57,77.97,44.36,75.77,45.51z" fill="#000000" class="color000000 svgShape"></path>
    <polygon points="90.33 45.3 86.97 50.4 84.83 48.89 87.5 44.91" fill="#000000" class="color000000 svgShape"></polygon>
    <path d="M77.82,33.81C82.49,26.61,88.94,29,88.94,29s2.91,0.66,4.9,0.36c-0.39-1.57-1.5-3.41-2.25-3.94c0,0,1.3-1.04,1.7-2.08
		c-1.85-1.97-5.6-3.19-7.52-3.15c0,0,0.81-1.05,0.93-1.95c-2.08-0.34-7.47,1.06-8.85,2.81c0,0-0.02-1.07-0.34-1.97
		c-3.35,1.89-4.46,5.4-4.19,7.22c0,0-2.19,2.02-1.87,5.29c0.32,3.27,1.58,4.91,1.58,4.91l3.9,5.39l2.09,2.4l0.44-7.47L77.82,33.81z" fill="#000000" class="color000000 svgShape"></path>
    <polygon points="80.12 29.27 81.8 38.07 76.81 31.74" fill="#000000" class="color000000 svgShape"></polygon>
    <g fill="#000000" class="color000000 svgShape">
      <ellipse cx="78.03" cy="36.47" fill="#ffffff" rx="2.65" ry="3.32" transform="rotate(-7.724 78.031 36.47)" class="colorffffff svgShape"></ellipse>
      <g fill="#000000" class="color000000 svgShape">
        <path d="M77.24,38.24c0.1,0,0.19-0.07,0.22-0.18c0.07-0.3,0.21-0.5,0.41-0.61c0.41-0.22,0.96-0.02,0.96-0.02
				c0.07,0.03,0.16,0.01,0.22-0.03c0.06-0.05,0.1-0.12,0.09-0.2c-0.15-1.89-1.67-2.4-1.74-2.42c-0.12-0.04-0.25,0.03-0.29,0.15
				c-0.04,0.12,0.03,0.25,0.15,0.29l0,0c0.05,0.02,1.12,0.38,1.37,1.69c-0.27-0.04-0.65-0.05-0.99,0.13
				c-0.33,0.18-0.55,0.48-0.65,0.92c-0.03,0.12,0.05,0.25,0.17,0.28C77.2,38.23,77.22,38.24,77.24,38.24z" fill="#000000" class="color000000 svgShape"></path>
      </g>
    </g>
    <path fill="#ffffff" stroke="#000000" stroke-linecap="round" stroke-linejoin="round" stroke-miterlimit="10" stroke-width=".316" d="M141.59,39.53l-3.28,2.11c-1.02,0.67-2.4,0.32-3.07-0.71l0,0c-0.67-1.02-0.38-2.39,0.64-3.06l3.42-2.24" class="colorffffff svgShape colorStroke000000 svgStroke"></path>
    <path fill="#ffffff" stroke="#000000" stroke-linecap="round" stroke-linejoin="round" stroke-miterlimit="10" stroke-width=".316" d="m143.69 43.48-3.19 2.04c-1.02.67-2.39.38-3.06-.64v0c-.67-1.02-.38-2.39.64-3.06l3.42-2.24M143.71 43.51l-3.42 2.24c-1.02.67-1.31 2.04-.64 3.06v0c0 0 .01.01.01.01.42.63 1.29.76 1.91.33l2.49-1.69M133.43 35.16l3.98 2.63c.57.38.57 1.21 0 1.58-1.22.8-3.4 1.78-6.26 1.14" class="colorffffff svgShape colorStroke000000 svgStroke"></path>
  </g>
</svg>
