<svg xmlns="http://www.w3.org/2000/svg" xml:space="preserve" id="Businessanalytics" x="0" y="0" enable-background="new 0 0 300 225" version="1.1" viewBox="0 0 300 225">
  <g fill="#000000" class="color000000 svgShape">
    <g id="XMLID_6_" fill="#000000" class="color000000 svgShape">
      <path id="XMLID_7_" fill="none" stroke="#000000" stroke-miterlimit="10" stroke-width=".316" d="M61.77,77.41c-25.72-8.7-24.42,39.59-19.4,60.98c7.14,30.37,29.87,54.65,59.54,64.75
			c18.55,6.32,43.35,9.94,73.31,3.19c42.19-9.5,74.83-43.06,82.09-85.47c0,0,20.83-91.21-43.18-99.91
			c-41.72-5.67-65.4,20.08-76.84,38.71c-7.36,12-20.04,19.59-33.93,20.45C89.22,80.99,72.34,80.99,61.77,77.41z" class="colorStroke000000 svgStroke"></path>
    </g>
    <g fill="#000000" class="color000000 svgShape">
      <path fill="#ffffff" stroke="#000000" stroke-miterlimit="10" stroke-width=".316" d="M56.19,128.84h123.86c3.83,0,6.94-3.11,6.94-6.94V21.98c0-3.83-3.11-6.94-6.94-6.94H56.19
			c-3.83,0-6.94,3.11-6.94,6.94v99.92C49.26,125.74,52.36,128.84,56.19,128.84z" class="colorffffff svgShape colorStroke000000 svgStroke"></path>
      <g fill="#000000" class="color000000 svgShape">
        <rect width="3.76" height="34.13" x="99.48" y="83.41" fill="#ffffff" stroke="#000000" stroke-linecap="round" stroke-linejoin="round" stroke-miterlimit="10" stroke-width=".316" class="colorffffff svgShape colorStroke000000 svgStroke"></rect>
        <rect width="3.77" height="14.26" x="91.72" y="103.29" fill="#000000" class="color000000 svgShape"></rect>
        <rect width="3.79" height="22.7" x="83.95" y="94.81" fill="#ffffff" stroke="#000000" stroke-linecap="round" stroke-linejoin="round" stroke-miterlimit="10" stroke-width=".316" class="colorffffff svgShape colorStroke000000 svgStroke"></rect>
        <rect width="3.72" height="18.94" x="68.47" y="98.58" fill="#ffffff" stroke="#000000" stroke-linecap="round" stroke-linejoin="round" stroke-miterlimit="10" stroke-width=".316" class="colorffffff svgShape colorStroke000000 svgStroke"></rect>
        <rect width="3.85" height="5.67" x="60.65" y="111.84" fill="#000000" class="color000000 svgShape"></rect>
        <rect width="3.85" height="11.34" x="76.17" y="106.17" fill="#000000" class="color000000 svgShape"></rect>
      </g>
      <path stroke="#000000" stroke-miterlimit="10" stroke-width=".316" d="M56.52,15.04h123.53c3.84,0,6.95,3.11,6.95,6.95v3.98H49.26v-3.67C49.26,18.29,52.51,15.04,56.52,15.04z" class="colorStroke000000 svgStroke"></path>
      <g fill="#000000" class="color000000 svgShape">
        <path d="M140.77,64.46h-18.33c0-7.6,4.79-14.09,11.56-16.74L140.77,64.46z" fill="#000000" class="color000000 svgShape"></path>
        <path fill="#ffffff" stroke="#000000" stroke-miterlimit="10" stroke-width=".316" d="M154.57,52.08L142.12,65.3l-6.78-16.74c2.09-0.82,4.38-1.27,6.78-1.27
				C146.92,47.29,151.3,49.11,154.57,52.08z" class="colorffffff svgShape colorStroke000000 svgStroke"></path>
        <path fill="#ffffff" stroke="#000000" stroke-miterlimit="10" stroke-width=".316" d="M154.57,52.08L142.12,65.3h-18.33c0,9.95,8.21,18.01,18.33,18.01c5.06,0,9.64-2.02,12.96-5.28
				c3.32-3.26,5.37-7.76,5.37-12.74C160.45,60.08,158.19,55.37,154.57,52.08z" class="colorffffff svgShape colorStroke000000 svgStroke"></path>
      </g>
      <polyline fill="none" stroke="#000" stroke-linecap="round" stroke-linejoin="round" stroke-miterlimit="10" stroke-width=".316" points="131.6 56.09 123.17 47.66 108.89 47.66"></polyline>
      <rect width="8.61" height="2.85" x="108.89" y="41.96" transform="rotate(-180 113.195 43.387)" fill="#000000" class="color000000 svgShape"></rect>
      <rect width="8.61" height="2.77" x="162.9" y="81.82" fill="#ffffff" stroke="#000000" stroke-miterlimit="10" stroke-width=".316" transform="rotate(-180 167.198 83.203)" class="colorffffff svgShape colorStroke000000 svgStroke"></rect>
      <rect width="8.61" height="2.83" x="162.9" y="39.12" fill="#ffffff" stroke="#000000" stroke-miterlimit="10" stroke-width=".316" transform="rotate(-180 167.198 40.542)" class="colorffffff svgShape colorStroke000000 svgStroke"></rect>
      <polyline fill="none" stroke="#000" stroke-miterlimit="10" stroke-width=".316" points="171.74 87.28 157.21 87.28 146.43 76.51"></polyline>
      <polyline fill="none" stroke="#000" stroke-miterlimit="10" stroke-width=".316" points="148.84 52.86 155.97 45.74 171.74 45.74"></polyline>
    </g>
    <g fill="#000000" class="color000000 svgShape">
      <g fill="#000000" class="color000000 svgShape">
        <rect width="66.51" height="52.46" x="191" y="152.24" fill="#000000" class="color000000 svgShape"></rect>
      </g>
      <g fill="#000000" class="color000000 svgShape">
        <rect width="66.51" height="52.46" x="174.84" y="152.24" fill="#ffffff" stroke="#000000" stroke-miterlimit="10" stroke-width=".316" class="colorffffff svgShape colorStroke000000 svgStroke"></rect>
      </g>
    </g>
    <g fill="#000000" class="color000000 svgShape">
      <path fill="#16261f" d="M213.51,77.86c-1.44-1.89-1.55-5.74-1.55-5.74c0-4.62-3.75-8.37-8.37-8.37s-8.37,3.75-8.37,8.37
			c0,0-0.11,3.85-1.55,5.74c-1.44,1.89-4.69,11.51,9.92,11.58C218.2,89.37,214.95,79.75,213.51,77.86z" class="color261616 svgShape"></path>
      <polygon fill="#ffffff" stroke="#000000" stroke-linecap="round" stroke-linejoin="round" stroke-miterlimit="10" stroke-width=".316" points="205.95 91.61 197.13 91.86 199.15 82.01 199.43 80.14 199.69 78.45 208.03 77.78" class="colorffffff svgShape colorStroke000000 svgStroke"></polygon>
      <path d="M209.58,85.28l-2.34,37.29l-17.76-2.14l7.31-36.78C196.78,83.65,199.13,88.46,209.58,85.28z" fill="#000000" class="color000000 svgShape"></path>
      <rect width="15.79" height="14.04" x="134.66" y="163.63" fill="#ffffff" stroke="#000000" stroke-linecap="round" stroke-linejoin="round" stroke-miterlimit="10" stroke-width=".316" transform="rotate(22.407 142.54 170.636)" class="colorffffff svgShape colorStroke000000 svgStroke"></rect>
      <g fill="#000000" class="color000000 svgShape">
        <path fill="#52cc99" d="M148.93,183.12l-31.06-3.74v0c0.2-1.7,1.31-3.16,2.89-3.82c4.15-1.73,11.91-4.93,12.12-5
				c0.29-0.1,0.62,0.16,0.85,0.47c0,0,0.94,1.34,1.92,1.92c0,0,0,0,0,0c0.26,0.15,0.57,0.31,0.93,0.46c1.3,0.56,3.25,1.07,5.93,1.36
				c3.01,0.33,5.13-0.12,5.4-0.1c0.27,0.02,0.7,0.58,0.73,0.98c0.01,0.09,0.02,0.5,0.05,1.1
				C148.77,178.85,148.93,183.12,148.93,183.12z" class="colorff7f6e svgShape"></path>
        <g fill="#000000" class="color000000 svgShape">
          <path d="M136.58,173.43l-9.61,5.1c-0.08,0.04-0.17,0.06-0.25,0.05c-0.13-0.02-0.26-0.09-0.32-0.22
					c-0.11-0.21-0.03-0.46,0.18-0.57l9.07-4.81C135.91,173.12,136.22,173.27,136.58,173.43z" fill="#000000" class="color000000 svgShape"></path>
        </g>
        <rect width="31.28" height="2.9" x="117.58" y="181.24" transform="rotate(6.863 133.223 182.686)" fill="#000000" class="color000000 svgShape"></rect>
      </g>
      <rect width="15.79" height="13.18" x="166.24" y="169.86" fill="#ffffff" stroke="#000000" stroke-linecap="round" stroke-linejoin="round" stroke-miterlimit="10" stroke-width=".316" class="colorffffff svgShape colorStroke000000 svgStroke"></rect>
      <path fill="#ffffff" stroke="#000000" stroke-linecap="round" stroke-linejoin="round" stroke-miterlimit="10" stroke-width=".316" d="M168.46,128.86c-17.14-0.11-24.47,3.44-27.46,12.61l-0.55,1.62c0,0,0.01,0,0.02,0.01
			c-0.04,0.14-0.09,0.27-0.13,0.41c-3.06,10.98-5.44,22.1-5.44,22.1s2.79,1.76,8.18,3.87c5.39,2.11,10.94,2.6,10.94,2.6
			s4.29-12.11,7.58-21.47l41.74,0.24l6.27-21.98H168.46z" class="colorffffff svgShape colorStroke000000 svgStroke"></path>
      <g fill="#000000" class="color000000 svgShape">
        <path fill="#52cc99" d="M185.61,185.29l-30.14,8.38l0,0c-0.46-1.65,0-3.42,1.22-4.63c3.18-3.18,9.13-9.09,9.3-9.24
				c0.23-0.2,0.64-0.09,0.97,0.11c0,0,1.38,0.88,2.51,1.04l0,0c0.3,0.04,0.65,0.07,1.04,0.07c1.42,0.02,3.41-0.25,6-1
				c2.9-0.84,4.7-2.06,4.96-2.15c0.26-0.08,0.87,0.27,1.05,0.62c0.04,0.08,0.21,0.46,0.46,1
				C183.84,181.39,185.61,185.29,185.61,185.29z" class="colorff7f6e svgShape"></path>
        <g fill="#000000" class="color000000 svgShape">
          <path d="M170.5,181.03l-6.94,8.37c-0.06,0.07-0.13,0.12-0.21,0.14c-0.13,0.04-0.27,0.01-0.38-0.08
					c-0.18-0.15-0.21-0.41-0.06-0.6l6.56-7.91C169.77,181,170.11,181.03,170.5,181.03z" fill="#000000" class="color000000 svgShape"></path>
        </g>
        <rect width="31.28" height="3.31" x="155.34" y="189.42" transform="rotate(-15.54 171.017 191.104)" fill="#000000" class="color000000 svgShape"></rect>
      </g>
      <path fill="#ffffff" stroke="#000000" stroke-linecap="round" stroke-linejoin="round" stroke-miterlimit="10" stroke-width=".316" d="M160.19,149.55c-0.23-11.51,8.99-21.11,20.62-21.18c0.13,0,0.26,0,0.39,0c3.26,0,6.83,0.13,10.46,0.34
			l29.17-7.08l0.52,17.27c0.22,7.25-5.64,13.22-12.89,13.14c-1.58-0.02-17.42,0.15-23.46,0.03c-1.17-0.02-2.1,0.95-2.04,2.11
			c0.51,9.74,1.11,20.9,1.11,20.9s-5.31,1.66-11.1,1.77c-5.79,0.11-9.04-0.46-9.04-0.46l-3.66-25.35v0
			C160.2,150.54,160.18,150.04,160.19,149.55z" class="colorffffff svgShape colorStroke000000 svgStroke"></path>
      <path fill="#52cc99" d="M198.16,149.84l26.84-1.56c0.6-0.02,1.05-0.54,0.99-1.14l-5.38-60.44l-13.42-3.34l-10.09,65.29
			C197,149.29,197.51,149.86,198.16,149.84z" class="colorff7f6e svgShape"></path>
      <polygon fill="#ffffff" stroke="#000000" stroke-miterlimit="10" stroke-width=".316" points="202.52 112.22 212.02 95.84 209.1 91.11 213.44 84.92 207.19 83.36" class="colorffffff svgShape colorStroke000000 svgStroke"></polygon>
      <path fill="#52cc99" d="M194.77,129.81H172.9l11.97-43.22c0.59-2.12,2.52-3.6,4.72-3.6l9.36,0L194.77,129.81z" class="colorff7f6e svgShape"></path>
      <polygon fill="#ffffff" stroke="#000000" stroke-miterlimit="10" stroke-width=".316" points="196.35 112.23 190.6 94.05 194.52 90.12 191.67 82.99 198.95 82.99" class="colorffffff svgShape colorStroke000000 svgStroke"></polygon>
      <path fill="#52cc99" d="M227.13 122.48c1.37 3.1 4.98 4.5 8.08 3.13 3.1-1.37 4.5-4.98 3.13-8.08l-10.72-25.28c-1.56-3.71-5.34-5.99-9.35-5.64l-6.15.54L227.13 122.48zM189.66 82.99 189.66 82.99c-3.82 0-7.28 2.24-8.85 5.72l-13.27 29.43c-1.35 3.1.07 6.72 3.17 8.07 3.1 1.35 6.72-.07 8.07-3.17l11.82-26.25L189.66 82.99z" class="colorff7f6e svgShape"></path>
      <g fill="#000000" class="color000000 svgShape">
        <path fill="#ffffff" stroke="#000000" stroke-miterlimit="10" stroke-width=".316" d="M178.67,130.53h-42.66c-0.44,0-0.84-0.28-0.98-0.7l-10.52-31.45c-0.22-0.67,0.27-1.36,0.98-1.36h41.23
				c0.44,0,0.84,0.28,0.98,0.7L178.67,130.53z" class="colorffffff svgShape colorStroke000000 svgStroke"></path>
        <polygon fill="#ffffff" stroke="#000000" stroke-miterlimit="10" stroke-width=".316" points="191.86 128.05 177.85 128.05 178.67 130.53 191.86 130.53" class="colorffffff svgShape colorStroke000000 svgStroke"></polygon>
      </g>
      <g fill="#000000" class="color000000 svgShape">
        <path d="M179.16,124.66c-0.03,0-0.05-0.01-0.08-0.02c-0.09-0.04-0.12-0.14-0.08-0.23l8.24-16.71c0.04-0.08,0.15-0.12,0.23-0.08
				c0.09,0.04,0.12,0.14,0.08,0.23l-8.24,16.71C179.28,124.62,179.22,124.66,179.16,124.66z" fill="#000000" class="color000000 svgShape"></path>
      </g>
      <g fill="#000000" class="color000000 svgShape">
        <line x1="215.8" x2="220.34" y1="102.58" y2="114.47" fill="#fff"></line>
        <path d="M220.34,114.64c-0.07,0-0.13-0.04-0.16-0.11l-4.54-11.89c-0.03-0.09,0.01-0.19,0.1-0.22c0.09-0.03,0.19,0.01,0.22,0.1
				l4.54,11.89c0.03,0.09-0.01,0.19-0.1,0.22C220.38,114.64,220.36,114.64,220.34,114.64z" fill="#000000" class="color000000 svgShape"></path>
      </g>
      <g fill="#000000" class="color000000 svgShape">
        <path fill="#ffffff" stroke="#000000" stroke-linecap="round" stroke-linejoin="round" stroke-miterlimit="10" stroke-width=".316" d="M209.04,121.58c0,0-6.7-6.93-14.26-7.5c0,0-3.34,0.01-1.02,3.75c0,0-6.01,0.21-8.55,3.18
				c-2.53,2.96,0.64,3.48,0.64,3.48l-1.74,2.18c-0.64,0.8-0.62,1.95,0.04,2.73l0.06,0.07c0.48,0.57,1.3,0.72,1.95,0.34l0,0l0,0
				c-0.43,0.76-0.29,1.71,0.33,2.32l0.03,0.03c0.6,0.59,1.52,0.71,2.26,0.31l0.3-0.16l-0.33,0.61c-0.39,0.7-0.24,1.58,0.34,2.13l0,0
				c0.56,0.52,1.39,0.62,2.05,0.25l0.73-0.41c0,0,3.13-2.98,7.31-1.09c0.96,0.43,2,0.64,3.05,0.61l0.92-0.03
				c3.05-0.09,6-1.13,8.43-2.97l0,0L209.04,121.58z" class="colorffffff svgShape colorStroke000000 svgStroke"></path>
        <g fill="#000000" class="color000000 svgShape">
          <path fill="#ffffff" d="M193.77,117.83c0,0,3.22-0.49,6.37,0.92" class="colorffffff svgShape"></path>
          <path d="M200.14,118.92c-0.02,0-0.05,0-0.07-0.01c-3.06-1.36-6.24-0.91-6.28-0.9c-0.09,0.01-0.18-0.05-0.2-0.14
					c-0.01-0.09,0.05-0.18,0.14-0.2c0.13-0.02,3.31-0.48,6.47,0.93c0.09,0.04,0.13,0.14,0.09,0.23
					C200.27,118.88,200.2,118.92,200.14,118.92z" fill="#000000" class="color000000 svgShape"></path>
        </g>
        <g fill="#000000" class="color000000 svgShape">
          <path fill="#ffffff" d="M185.86,124.49c0,0,3.77-3.25,9.58-2.82" class="colorffffff svgShape"></path>
          <path d="M185.86,124.66c-0.05,0-0.1-0.02-0.13-0.06c-0.06-0.07-0.05-0.18,0.02-0.24c0.04-0.03,3.88-3.29,9.7-2.86
					c0.09,0.01,0.17,0.09,0.16,0.18c-0.01,0.09-0.09,0.16-0.18,0.16c-5.67-0.42-9.42,2.75-9.45,2.78
					C185.94,124.64,185.9,124.66,185.86,124.66z" fill="#000000" class="color000000 svgShape"></path>
        </g>
        <g fill="#000000" class="color000000 svgShape">
          <g fill="#000000" class="color000000 svgShape">
            <path fill="#ffffff" d="M186.16,129.81c0,0,3.98-5.14,10.94-4.74" class="colorffffff svgShape"></path>
            <path d="M186.16,129.98c-0.04,0-0.07-0.01-0.11-0.04c-0.08-0.06-0.09-0.17-0.03-0.24c0.04-0.05,4.12-5.21,11.08-4.8
						c0.09,0.01,0.17,0.09,0.16,0.18c-0.01,0.09-0.07,0.17-0.18,0.16c-6.79-0.39-10.75,4.62-10.79,4.67
						C186.27,129.96,186.22,129.98,186.16,129.98z" fill="#000000" class="color000000 svgShape"></path>
          </g>
        </g>
        <g fill="#000000" class="color000000 svgShape">
          <g fill="#000000" class="color000000 svgShape">
            <path fill="#ffffff" d="M189.08,132.3c0,0,4.01-4.34,10.22-3.42" class="colorffffff svgShape"></path>
            <path d="M189.08,132.47c-0.04,0-0.08-0.02-0.12-0.05c-0.07-0.06-0.07-0.17-0.01-0.24c0.04-0.04,4.14-4.39,10.37-3.47
						c0.09,0.01,0.16,0.1,0.14,0.19c-0.01,0.09-0.1,0.16-0.2,0.14c-6.05-0.89-10.03,3.33-10.07,3.37
						C189.18,132.45,189.13,132.47,189.08,132.47z" fill="#000000" class="color000000 svgShape"></path>
          </g>
        </g>
      </g>
      <path fill="#52cc99" d="M229.19,112.43c4.24-0.99,8.48,1.65,9.47,5.88c0.99,4.24-1.64,8.48-5.88,9.47l-23.41,6.46l-4.01-16.54
			L229.19,112.43z" class="colorff7f6e svgShape"></path>
      <g fill="#000000" class="color000000 svgShape">
        <line x1="205.35" x2="223" y1="117.7" y2="113.8" fill="#fff"></line>
        <path d="M205.36,117.87c-0.08,0-0.15-0.05-0.17-0.13c-0.02-0.09,0.04-0.18,0.13-0.2l17.65-3.91c0.1-0.02,0.18,0.04,0.21,0.13
				c0.02,0.09-0.04,0.18-0.13,0.2l-17.65,3.91C205.38,117.87,205.37,117.87,205.36,117.87z" fill="#000000" class="color000000 svgShape"></path>
      </g>
      <g fill="#000000" class="color000000 svgShape">
        <line x1="224.44" x2="209.36" y1="130.08" y2="134.24" fill="#fff"></line>
        <path d="M209.36,134.42c-0.08,0-0.14-0.05-0.17-0.13c-0.03-0.09,0.03-0.19,0.12-0.21l15.08-4.16c0.09-0.03,0.19,0.03,0.21,0.12
				c0.03,0.09-0.03,0.19-0.12,0.21l-15.08,4.16C209.39,134.41,209.38,134.42,209.36,134.42z" fill="#000000" class="color000000 svgShape"></path>
      </g>
      <path fill="#16261f" d="M211.47,71.49c0,4.18-3.57,7.83-7.96,7.83c-4.4,0-7.96-3.65-7.96-7.83s3.57-7.57,7.96-7.57
			C207.91,63.92,211.47,67.31,211.47,71.49z" class="color261616 svgShape"></path>
      <path fill="#ffffff" stroke="#000000" stroke-linecap="round" stroke-linejoin="round" stroke-miterlimit="10" stroke-width=".316" d="M196.78,70.99c0,0-0.36,11.77,6.52,11.77c7.47,0,7-11.77,7-11.77s-0.04-5.4-6.82-5.4
			C197.27,65.59,196.78,70.99,196.78,70.99z" class="colorffffff svgShape colorStroke000000 svgStroke"></path>
      <path fill="#16261f" d="M209.42,68.25c0,0-3.28-1.41-5.37,0.76c-2,2.08-4.23,3.7-7.27,2.48c0,0-0.82-4.54,4.79-6
			C207.19,64.03,209.42,68.25,209.42,68.25z" class="color261616 svgShape"></path>
      <ellipse cx="211.04" cy="75.81" fill="#ffffff" rx="2.31" ry="1.85" transform="rotate(-74.912 211.044 75.81)" class="colorffffff svgShape"></ellipse>
      <path fill="none" stroke="#000000" stroke-linecap="round" stroke-linejoin="round" stroke-miterlimit="10" stroke-width=".316" d="M211.92,74.96c0,0-1.05,0.08-1.42,1.25c0,0,1.01-0.13,1.02,0.81" class="colorStroke000000 svgStroke"></path>
      <ellipse cx="196.3" cy="75.81" fill="#ffffff" rx="1.85" ry="2.31" transform="rotate(-15.088 196.306 75.811)" class="colorffffff svgShape"></ellipse>
      <g fill="#000000" class="color000000 svgShape">
        <circle cx="199.84" cy="74.8" r="2.63" fill="none" stroke="#000000" stroke-miterlimit="10" stroke-width=".316" class="colorStroke000000 svgStroke"></circle>
        <circle cx="206.97" cy="74.8" r="2.63" fill="none" stroke="#000000" stroke-miterlimit="10" stroke-width=".316" class="colorStroke000000 svgStroke"></circle>
        <path fill="none" stroke="#000000" stroke-miterlimit="10" stroke-width=".316" d="M202.46,74.8c0,0,0.94-0.51,1.88,0" class="colorStroke000000 svgStroke"></path>
      </g>
      <path fill="none" stroke="#000000" stroke-linecap="round" stroke-linejoin="round" stroke-miterlimit="10" stroke-width=".316" d="M195.64,74.96c0,0,1.05,0.08,1.42,1.25c0,0-1.01-0.13-1.02,0.81" class="colorStroke000000 svgStroke"></path>
    </g>
  </g>
</svg>
